Coordinates
version=1
nRows=16
nColumns=42
inDegrees=yes

Units are S.I. units (second, meters, Newtons, ...)
If the header above contains a line with 'inDegrees', this indicates whether rotational values are in degrees (yes) or radians (no).

endheader
time	pelvis_tilt	pelvis_list	pelvis_rotation	pelvis_tx	pelvis_ty	pelvis_tz	hip_flexion_r	hip_adduction_r	hip_rotation_r	knee_angle_r	knee_adduction_r	knee_angle_r_beta	ankle_angle_r	subtalar_angle_r	mtp_angle_r	hip_flexion_l	hip_adduction_l	hip_rotation_l	knee_angle_l	knee_adduction_l	knee_angle_l_beta	ankle_angle_l	subtalar_angle_l	mtp_angle_l	lumbar_extension	lumbar_bending	lumbar_rotation	arm_flex_r	arm_add_r	arm_rot_r	elbow_flex_r	pro_sup_r	wrist_flex_r	wrist_dev_r	arm_flex_l	arm_add_l	arm_rot_l	elbow_flex_l	pro_sup_l	wrist_flex_l	wrist_dev_l
      1.68000000	     14.02499628	     -4.73726217	     -0.63594029	     -1.05533653	      0.89985908	      0.03531457	    -29.38936601	     -0.58666209	    -12.59019130	     13.88807744	     11.74651855	      0.24239268	     15.48854778	     35.12505741	     -7.57987148	     15.42875239	     -7.14283126	     -7.06892951	     25.88454896	     -4.18402295	      0.45177060	     13.71809552	      8.03037827	     -7.57987148	    -31.70586204	     -0.56968651	      0.13002909	     13.23511601	    -29.68101621	      4.56220127	     81.99731574	     90.00000001	      0.00000000	      0.00000000	     -4.30300472	     -6.42819344	    -17.24590389	     33.61250954	     90.00000001	      0.00000000	      0.00000000
      1.69000000	     13.74763691	     -4.68743746	     -0.74334166	     -1.04611852	      0.89903290	      0.03400905	    -29.47254969	     -0.80640636	    -12.25036527	     14.28422995	     11.45804020	      0.24930684	     15.37184011	     35.26806478	     -7.57956946	     15.45850929	     -6.85870386	     -6.76177274	     26.58523781	     -4.26098734	      0.46399993	     13.65422845	      8.38624576	     -7.57956946	    -31.35540024	     -0.62588129	      0.12757883	     13.13994963	    -29.60796124	      4.42816460	     82.24607564	     90.00000001	      0.00000000	      0.00000000	     -4.26168946	     -6.52514493	    -17.28810288	     33.62794909	     90.00000001	      0.00000000	      0.00000000
      1.70000000	     13.37348287	     -4.67763072	     -0.66060184	     -1.03657220	      0.89778606	      0.03208460	    -29.49482180	     -1.08914591	    -12.51851934	     14.85675539	     11.53243431	      0.25929930	     15.25309585	     35.51418640	     -7.57856343	     16.00585758	     -6.61336126	     -6.86028728	     28.10843428	     -4.56741910	      0.49058473	     13.80945209	      9.16354014	     -7.57856343	    -30.89395074	     -0.49838030	      0.06652294	     12.62072477	    -29.57116091	      3.86489419	     82.93602872	     90.00000001	      0.00000000	      0.00000000	     -4.24046323	     -6.53051875	    -17.36554169	     33.67953653	     90.00000001	      0.00000000	      0.00000000
      1.71000000	     13.06701131	     -4.78529574	     -0.72500507	     -1.02690695	      0.89681828	      0.03069536	    -29.51598186	     -1.12729184	    -12.80416960	     15.44602763	     11.06886732	      0.26958404	     14.99644239	     36.33775096	     -7.57433374	     16.48843951	     -6.63704316	     -7.63405186	     29.58571962	     -5.11975574	      0.51636822	     14.41312186	     11.87141671	     -7.57433374	    -30.49842892	     -0.36133614	      0.21606593	     12.14590900	    -29.50559748	      3.47590541	     83.31222844	     90.00000001	      0.00000000	      0.00000000	     -4.15904596	     -6.61020325	    -17.26972679	     33.72331410	     90.00000001	      0.00000000	      0.00000000
      1.72000000	     12.77074971	     -4.63592689	     -0.75898768	     -1.01740159	      0.89618006	      0.02879679	    -29.57099776	     -1.57111511	    -12.62087265	     15.95585420	     11.13164467	      0.27848219	     14.69783267	     36.32287851	     -7.57378070	     16.70178268	     -6.23172373	     -7.07255583	     30.64178695	     -5.09664632	      0.53480007	     14.11315077	     12.05658020	     -7.57378070	    -30.16969725	     -0.43494065	      0.15535902	     11.75184770	    -29.35486497	      3.21971687	     83.51834606	     90.00000001	      0.00000000	      0.00000000	     -4.05540880	     -6.65809701	    -17.30619938	     33.81634113	     90.00000001	      0.00000000	      0.00000000
      1.73000000	     12.50897844	     -4.52354194	     -0.89256179	     -1.00772211	      0.89589740	      0.02724297	    -29.61200984	     -1.86014488	    -12.25709087	     16.43249546	     10.83993450	      0.28680115	     14.42545077	     36.18789171	     -7.57341214	     16.72406423	     -5.86773994	     -6.49986721	     31.39379768	     -5.14971735	      0.54792513	     13.89576091	     12.18719264	     -7.57341214	    -29.86336813	     -0.54849453	      0.20500127	     11.31663933	    -29.18647104	      3.17306504	     83.48514308	     90.00000001	      0.00000000	      0.00000000	     -3.94752487	     -6.73311778	    -17.31555077	     33.89883477	     90.00000001	      0.00000000	      0.00000000
      1.74000000	     12.22565908	     -4.31522936	     -0.76585224	     -0.99814887	      0.89536089	      0.02482227	    -29.61314956	     -2.40353894	    -12.57404047	     17.22282815	     11.07443588	      0.30059506	     13.67277365	     36.03405785	     -7.57253071	     17.11100114	     -5.45210187	     -5.88014910	     32.81886597	     -4.92093438	      0.57279727	     13.58758143	     11.91309852	     -7.57253071	    -29.59869394	     -0.58494885	      0.11049465	     10.65644898	    -28.91697322	      2.48899835	     83.71322183	     90.00000001	      0.00000000	      0.00000000	     -3.67142336	     -6.77322038	    -17.27265373	     33.93762180	     90.00000001	      0.00000000	      0.00000000
      1.75000000	     12.06748124	     -3.90011494	     -0.66947793	     -0.98854968	      0.89547168	      0.02234582	    -29.60700157	     -3.04638514	    -13.49163825	     18.27257271	     10.71670665	      0.31891656	     12.75059739	     36.69315686	     -7.56802060	     16.90655771	     -4.62883037	     -4.22268182	     33.41979278	     -4.35871005	      0.58328542	     12.85214435	      9.38211677	     -7.56802060	    -29.48680777	     -0.86447000	     -0.02596404	      9.94988431	    -28.58445002	      1.91188111	     83.73643322	     90.00000001	      0.00000000	      0.00000000	     -3.33549178	     -6.91032023	    -16.94208139	     33.89409657	     90.00000001	      0.00000000	      0.00000000
      1.76000000	     11.95638891	     -3.71591536	     -0.73935288	     -0.97872107	      0.89571081	      0.02044519	    -29.61222266	     -3.50355726	    -13.53899066	     19.26472116	     10.57381215	      0.33623281	     11.83626666	     36.43629089	     -7.56731856	     16.73299457	     -4.36492250	     -3.82123378	     34.21025586	     -4.05201181	      0.59708160	     12.65816336	      9.06188076	     -7.56731856	    -29.39663547	     -1.00477195	      0.01801371	      9.32940884	    -28.26036441	      1.61867828	     83.49630329	     90.00000001	      0.00000000	      0.00000000	     -3.03353813	     -6.97493724	    -16.93407705	     33.90484071	     90.00000001	      0.00000000	      0.00000000
      1.77000000	     11.96584467	     -3.36692288	     -0.78187769	     -0.96893892	      0.89642165	      0.01830473	    -29.60418284	     -4.12063612	    -14.11471844	     20.57063915	     10.19644911	      0.35902538	     10.43269132	     36.27309602	     -7.56593407	     16.21278440	     -3.83274289	     -3.22558177	     34.58359368	     -3.71473471	      0.60359758	     12.32586839	      7.89557610	     -7.56593407	    -29.48176708	     -1.28705960	      0.02159730	      8.63614898	    -27.87546793	      1.19822659	     83.23593856	     90.00000001	      0.00000000	      0.00000000	     -2.61295052	     -7.06103192	    -16.82084473	     33.84802420	     90.00000001	      0.00000000	      0.00000000
      1.78000000	     12.05164250	     -3.14070859	     -0.85271573	     -0.95917125	      0.89734968	      0.01641793	    -29.57771969	     -4.62570321	    -14.37034657	     22.02134270	      9.89551267	      0.38434494	      9.18651566	     35.98975717	     -7.56518180	     15.56760936	     -3.60195188	     -2.98890629	     34.89909102	     -3.26850666	      0.60910404	     12.18346714	      7.22499330	     -7.56518180	    -29.65509025	     -1.47793689	      0.03988957	      8.07637007	    -27.44998204	      0.99157992	     82.69535078	     90.00000001	      0.00000000	      0.00000000	     -2.19912560	     -7.15754269	    -16.74213951	     33.87140728	     90.00000001	      0.00000000	      0.00000000
      1.79000000	     12.27570885	     -2.44786186	     -0.87076306	     -0.94946631	      0.89879722	      0.01381133	    -29.53617880	     -5.70744893	    -15.47906819	     23.93944278	      9.40243656	      0.41782210	      7.60009755	     36.23505152	     -7.56182660	     14.40707761	     -2.57712645	     -2.14516751	     34.49530985	     -2.80276111	      0.60205673	     11.43638387	      4.98864863	     -7.56182660	    -30.02071962	     -2.07873209	     -0.19293537	      7.44177865	    -26.96069419	      0.73440147	     82.12856836	     90.00000001	      0.00000000	      0.00000000	     -1.71018355	     -7.31979169	    -16.46087606	     33.92182673	     90.00000001	      0.00000000	      0.00000000
      1.80000000	     12.56525060	     -2.41366579	     -0.86391920	     -0.93987222	      0.90031490	      0.01185436	    -29.44995340	     -5.92668327	    -15.43988747	     25.71230771	      8.89935081	      0.44876443	      6.16628902	     35.66226731	     -7.56135754	     13.42678412	     -2.54102141	     -2.33699625	     34.58546017	     -2.63105769	      0.60363015	     11.68616840	      4.86190880	     -7.56135754	    -30.47100153	     -2.02924970	     -0.18034141	      6.95535293	    -26.53413691	      0.62492197	     81.34822086	     90.00000001	      0.00000000	      0.00000000	     -1.18697294	     -7.38784946	    -16.40685650	     34.00981795	     90.00000001	      0.00000000	      0.00000000
      1.81000000	     12.97438672	     -2.24333805	     -0.85708400	     -0.93018189	      0.90220426	      0.00990101	    -29.32539895	     -6.28820996	    -15.69539573	     27.84775928	      8.23386437	      0.48603509	      4.33348462	     34.84140201	     -7.56086381	     12.12934677	     -2.31097603	     -2.73967395	     34.30192327	     -2.59531338	      0.59868150	     11.98424437	      4.88380069	     -7.56086381	    -31.05446932	     -2.13010572	     -0.23473974	      6.42465892	    -26.04976663	      0.51941805	     80.49298950	     90.00000001	      0.00000000	      0.00000000	     -0.60685455	     -7.48989412	    -16.31151292	     34.09906836	     90.00000001	      0.00000000	      0.00000000
      1.82000000	     13.37460166	     -1.80236283	     -0.92894130	     -0.92031279	      0.90413963	      0.00796789	    -28.99234302	     -7.00758043	    -16.33728150	     30.40738088	      7.35460085	      0.53070891	      2.26436706	     33.67593637	     -7.56003971	     10.66966654	     -1.73089751	     -3.36449981	     33.63931901	     -2.69600263	      0.58711687	     12.23841515	      5.26463711	     -7.56003971	    -31.57558377	     -2.54029293	     -0.35830673	      5.79400439	    -25.48544522	      0.47750899	     79.55606386	     90.00000001	      0.00000000	      0.00000000	     -0.03669098	     -7.67768686	    -16.15241946	     34.19273967	     90.00000001	      0.00000000	      0.00000000
      1.83000000	     13.77149689	     -1.49776288	     -0.89626987	     -0.91079921	      0.90607311	      0.00583693	    -28.46734922	     -7.55195853	    -16.49496731	     33.19116429	      6.61326942	      0.57929510	      0.68095798	     32.59966123	     -7.55916298	      9.28029968	     -1.21599397	     -3.94275029	     33.04934178	     -2.95065466	      0.57681983	     12.57587233	      5.84130788	     -7.55916298	    -32.15857998	     -2.74407132	     -0.55190295	      5.27219360	    -24.94512342	      0.48298700	     78.49756019	     90.00000001	      0.00000000	      0.00000000	      0.58277027	     -7.83801467	    -15.96260349	     34.33429007	     90.00000001	      0.00000000	      0.00000000
